<svg width="279" height="239" viewBox="0 0 279 239" fill="none" xmlns="http://www.w3.org/2000/svg">
<path d="M155.2 94.56C145.28 94.56 137.76 87.2 137.76 77.28C137.76 67.36 145.28 60 155.2 60C165.12 60 172.64 67.36 172.64 77.28C172.64 87.2 165.12 94.56 155.2 94.56ZM70.88 177.12V123.36H60V97.12H70.88V88C70.88 71.2 83.68 60 102.4 60C122.08 60 134.56 72.16 134.56 91.36H108.96C108.96 88.32 107.04 86.24 104.16 86.24C101.44 86.24 99.68 88 99.68 90.72V97.12H121.44V123.36H99.68V177.12H70.88ZM140.8 177.12V101.6H169.6V177.12H140.8Z" fill="black"/>
<path d="M200.096 179.04C189.056 179.04 180.736 170.72 180.736 159.84C180.736 148.96 189.056 140.64 200.096 140.64C211.136 140.64 219.456 148.96 219.456 159.84C219.456 170.72 211.136 179.04 200.096 179.04Z" fill="#BDF12B"/>
</svg>
